<?xml version="1.0" encoding="UTF-8"?>
<svg id="_图层_2" data-name="图层 2" xmlns="http://www.w3.org/2000/svg" xmlns:xlink="http://www.w3.org/1999/xlink" viewBox="0 0 564.7 298.74">
  <defs>
    <style>
      .cls-1, .cls-2 {
        stroke-width: 0px;
      }

      .cls-2 {
        fill: none;
      }

      .cls-3 {
        clip-path: url(#clippath);
      }
    </style>
    <clipPath id="clippath">
      <rect class="cls-2" width="564.7" height="298.74"/>
    </clipPath>
  </defs>
  <g id="_图层_1-2" data-name="图层 1">
    <g class="cls-3">
      <path class="cls-1" d="m436.1,189.1c9.29-1.65,18.52-2.06,27.71-3.01,4.6-.48,9.22.07,13.54,1.73,6.65,2.57,11.06,7.72,9.13,18.63-.98,5.52-2.92,10.54-6.1,14.95-1.07,1.48-1.5,3.41-3.19,4.51-3.04,1.97-6.54,1.38-8.21-1.69-1.69-3.13-.5-6.71,2.81-8.34,3.15-1.55,4.28-4.75,5.6-7.8.15-.34.2-.74.3-1.11,3.09-11.45-.1-15.15-10.58-16.29-10.35-1.13-20.8.48-31.12,2.16-1.02.17-1.43.86-1.85,1.82-4.14,9.52-8.79,18.74-14.49,27.29-1.85,2.77-3.99,5.69-7.63,4.84-3.75-.88-5.33-4.29-6.26-7.97-.37-1.45-.51-2.97-.82-4.84-3.91,5.35-7.46,10.55-11.51,15.31-7.16,8.42-14.37,16.77-23.17,23.31-2.6,1.93-5.35,3.53-8.25,4.82-5.64,2.51-10.88.4-13.49-5.53-1.1-2.5-1.83-5.19-2.83-8.11-3.33,4.41-6.4,8.72-9.7,12.82-9.74,12.1-20.28,23.26-33.1,31.66-1.99,1.31-4.06,2.46-6.26,3.34-4.01,1.6-6.94-.65-6.48-5.25.5-4.92,2.58-9.25,5.48-13,13.11-16.94,28.61-30.92,46.04-42.44,1.62-1.07,2.47-2.19,2.4-4.33-.17-5.9.75-11.74,1.19-17.61.04-.48.17-.96-.31-1.49-3.63.54-7.39.44-11.14.38-7.88-.12-13.27-7.05-12.17-15.49,1.48-11.39,6.62-21.07,12.36-30.42,4.82-7.85,9.94-15.49,15.15-23.57-2.65-.27-4.86.43-7.06.81-6.67,1.17-10.62-.92-13.57-7.44-3.12-6.9-2.73-13.97-.88-21.12,2.82-10.92,8.19-20.21,15.64-28.19-.67-.94-1.54-.53-2.27-.53-39.68,0-79.35.02-119.03.09-15.83.03-31.66.12-47.49.29-24.46.27-48.91.4-73.36,1.03-20.48.53-40.95,1.68-61.42,2.55-2.45.1-4.74-.32-6.05-2.86-.98-1.89-.96-3.94,0-5.82,1.17-2.31,3.17-2.92,5.5-2.81,10.95.53,21.9,1.08,32.86,1.5,10.6.41,21.21.73,31.81.97,39.47.91,78.95,1.16,118.43,1.18,41.2.02,82.41.12,123.61.21,1.53,0,2.72-.56,3.95-1.49,12.36-9.36,25.9-15.83,40.97-17.83,14.71-1.94,26.82,3.67,36.02,16.13,1.75,2.38,3.46,3.25,6.26,3.24,24.11-.13,48.22-.02,72.34-.1,9.34-.03,18.7-.19,27.99-1.41,1.24-.16,2.51-.35,3.7-.76,2.43-.83,4.65-.61,6.51,1.31,2.03,2.1,1.76,4.79,1.1,7.32-.82,3.13-2.92,5.51-4.81,7.93-9.67,12.42-20.76,23.3-32.45,33.45-20.64,17.93-42.33,34.23-65.7,47.84-1.72,1-2.68,2.25-3.1,4.28-.72,3.56-1.62,7.08-2.53,10.96Zm-90.06,13.93c.82-4.03,1.53-7.89,2.39-11.71,2.97-13.12,7.7-25.4,15.3-36.27,3.28-4.69,7.7-4.54,10.7.4,1.2,1.98,1.87,4.14,2.1,6.49.61,6.02.03,11.91-1.41,17.76-1.72,6.97-4.09,13.68-6.82,20.73,2.78-.6,5.23-1.06,7.65-1.66,11.29-2.81,22.02-7.33,32.78-11.88,8.86-3.74,17.4-8.09,25.78-12.88,1.19-.68,1.99-1.44,2.23-2.91,1.29-7.97,2.5-15.96,2.9-24.05.52-10.45-.13-20.81-2.13-31.08-2.14-11.04-4.35-22.03-9.42-32.08-.73-1.44-1.54-2.05-3.12-2.05-24.11.05-48.22.05-72.33.02-1.43,0-2.52.42-3.58,1.52-7.8,8.07-12.69,17.82-14.58,29.25-.91,5.49-1.01,10.92,2.01,15.93.82,1.36,1.68,1.75,3.08,1.58,2.6-.32,5.11-1.03,7.57-1.94,3.63-1.35,7.2-2.94,10.89-4.08,2.42-.75,4.64.15,5.99,2.61,1.28,2.34.94,5.05-1.07,6.79-3.03,2.62-5.65,5.63-8.13,8.83-8.28,10.68-16.2,21.61-21.06,34.68-2.1,5.65-3.99,11.39-4.21,17.54-.15,4.36,1.61,6.53,5.54,7.55,3.53.92,7.09,1.08,10.96.92Zm188.54-119.81c-34.65-2.42-68.87-.85-103.23-1.45,11.54,28.8,14.85,58.01,8.8,88.75,1.42-.8,2.36-1.3,3.27-1.85,16.57-10.14,32.22-21.72,47.12-34.5,12.39-10.63,24.01-22.1,34.06-35.33,3.56-4.69,7.04-9.45,9.97-15.62Zm-133.72,120.98c-.66-.52-1.02-.03-1.39.12-12.85,5.48-25.2,12.05-37.42,18.99-4.51,2.56-8.18,5.66-10.41,10.68-.6,1.34-.86,2.52-.42,3.83,1.12,3.34,2.23,6.7,3.52,9.96,1.27,3.21,2.48,3.79,5.5,2.9,3.74-1.1,7.26-2.77,10.44-5.19,8.56-6.5,15.33-14.82,21.19-24.06,3.47-5.47,6.56-11.17,8.98-17.24Zm23.79-126.14c-7.19-8.81-15.11-14.66-25.45-15.17-14.5-.71-27.7,4.19-39.96,12.23-1.14.75-2.19,1.67-3.82,2.94h69.23Zm-80.89,157.54c-.62.42-1.23.8-1.82,1.23-7.9,5.9-15.56,12.13-22.49,19.3-7.05,7.29-14.34,14.36-20.04,23-1.46,2.22-2.77,4.54-3.36,7.58.69-.22,1.03-.29,1.34-.42,5.4-2.26,10.16-5.78,14.65-9.56,12.47-10.49,22.55-23.39,31.53-37.32.78-1.21.98-2.43.18-3.82Zm7.08-33.04c2.48-.21,4.51-.52,6.54-.52,3.21,0,5.02-1.29,6.03-4.87,2.83-10.03,6.1-19.92,6.03-30.58-.02-2.48-.1-5.05-1.43-7.59-11.8,11.94-14.85,27.37-17.17,43.57Zm54.98-10.29c-.77.24-1.18.33-1.56.49-11.62,4.84-23.38,9.17-35.74,11.32-.75.13-1.69.08-2.12,1.02-2.14,4.66-4.26,9.32-6.64,14.54,13.79-7.68,27.25-14.48,41.24-19.92,3.52-1.37,3.84-4.23,4.82-7.45Zm25.17,1.65c-5.77,1.04-10.68,2.7-15.6,4.29-.6.19-1.18.5-1.17,1.36.07,5.81-.38,11.65.94,17.99,7.28-6.55,10.98-15.14,15.83-23.64Zm4.23-16.19c-6.7,3.98-13.41,7.24-20.28,10.63,1.53,1.73.59,3.83,1.24,5.7,4.96-1.52,9.76-2.95,14.68-3.86.89-.17,1.42-.77,1.66-1.66.96-3.46,2.15-6.87,2.69-10.82Zm-84.8,29.06c-.61,6.06-.48,12.01.07,18.13,4.75-5.57,6.88-12.55,9.9-19.57-3.57.51-6.65.96-9.98,1.44Z"/>
    </g>
  </g>
</svg>